<svg width="328" height="70" viewBox="0 0 328 70" fill="none" xmlns="http://www.w3.org/2000/svg">
<g clip-path="url(#clip0)">
<path fill-rule="evenodd" clip-rule="evenodd" d="M13.8762 54.1795L2.23924 42.5365C0.838244 41.0965 0.0372441 39.1765 0.000244141 37.1665C0.104244 36.0755 0.406244 35.0125 0.891244 34.0305L11.6552 11.6415L13.8762 54.1795Z" fill="#01579B"/>
<path fill-rule="evenodd" clip-rule="evenodd" d="M53.7288 13.887L42.0858 2.24401C41.0748 1.22701 38.9558 0.00501483 37.1618 0.00501483C35.7648 -0.0429852 34.3788 0.265015 33.1348 0.902015L11.6548 11.641L53.7288 13.887Z" fill="#40C4FF"/>
<path fill-rule="evenodd" clip-rule="evenodd" d="M27.7585 68.0613H55.9685V55.9673L34.9225 49.2543L15.6755 55.9673L27.7585 68.0613Z" fill="#40C4FF"/>
<path fill-rule="evenodd" clip-rule="evenodd" d="M11.655 47.9124C11.655 51.5244 12.106 52.3914 13.894 54.1854L15.7 55.9914H55.992L36.271 33.5904L11.655 11.6474V47.9124Z" fill="#29B6F6"/>
<path fill-rule="evenodd" clip-rule="evenodd" d="M47.4558 11.6414H11.6548L55.9798 55.9674H68.0688V28.2084L53.7288 13.8874C51.7178 11.8644 49.9308 11.6414 47.4558 11.6414Z" fill="#01579B"/>
<path fill-rule="evenodd" clip-rule="evenodd" d="M14.3278 54.6306C12.5218 52.8246 12.0878 51.0606 12.0878 47.9126V12.0926L11.6548 11.6416V47.9066C11.6548 51.0606 11.6548 51.9276 14.3458 54.6306L15.6938 55.9736L14.3278 54.6306Z" fill="white"/>
<path fill-rule="evenodd" clip-rule="evenodd" d="M67.6111 27.7634V55.5214H55.5171L55.9681 55.9674H68.0631V28.2144L67.6111 27.7634Z" fill="#263238"/>
<path fill-rule="evenodd" clip-rule="evenodd" d="M53.7288 13.887C51.5078 11.666 49.6898 11.641 47.0108 11.641H11.6548L12.1058 12.093H47.0228C48.3538 12.093 51.7298 11.87 53.7348 13.899L53.7288 13.887Z" fill="white"/>
<path fill-rule="evenodd" clip-rule="evenodd" d="M213.632 54.7913C212.832 53.9913 212.432 53.0073 212.432 51.8403C212.432 50.7163 212.832 49.7543 213.632 48.9543C214.432 48.1543 215.416 47.7543 216.583 47.7543C217.751 47.7543 218.734 48.1543 219.534 48.9543C220.334 49.7543 220.734 50.7163 220.734 51.8403C220.734 53.0073 220.334 53.9913 219.534 54.7913C218.734 55.5923 217.751 55.9913 216.583 55.9913C215.416 55.9913 214.432 55.5923 213.632 54.7913Z" fill="white"/>
<path fill-rule="evenodd" clip-rule="evenodd" d="M247.164 50.4783C248.828 49.4403 250.168 47.9713 251.185 46.0683C252.2 44.1663 252.709 41.9603 252.709 39.4523C252.709 36.9453 252.2 34.7403 251.185 32.8373C250.168 30.9353 248.828 29.4643 247.164 28.4273C245.498 27.3893 243.693 26.8703 241.748 26.8703C239.845 26.8703 238.051 27.3893 236.365 28.4273C234.679 29.4643 233.327 30.9463 232.311 32.8703C231.295 34.7933 230.788 36.9883 230.788 39.4523C230.788 41.9163 231.295 44.1123 232.311 46.0353C233.327 47.9593 234.679 49.4403 236.365 50.4783C238.051 51.5163 239.845 52.0343 241.748 52.0343C243.693 52.0343 245.498 51.5163 247.164 50.4783ZM233.09 54.7593C230.69 53.2453 228.798 51.1593 227.415 48.5003C226.03 45.8413 225.339 42.8253 225.339 39.4523C225.339 36.1233 226.03 33.1193 227.415 30.4373C228.798 27.7563 230.69 25.6603 233.09 24.1463C235.49 22.6333 238.181 21.8763 241.164 21.8763C243.671 21.8763 245.92 22.4503 247.909 23.5953C249.897 24.7413 251.412 26.1573 252.45 27.8433H252.709L252.45 23.2383V9.55432H257.962V55.9913H252.709V51.1263H252.45C251.412 52.7703 249.897 54.1653 247.909 55.3103C245.92 56.4553 243.671 57.0283 241.164 57.0283C238.181 57.0283 235.49 56.2713 233.09 54.7593Z" fill="white"/>
<path fill-rule="evenodd" clip-rule="evenodd" d="M288.769 35.9505C288.682 34.5675 288.293 33.1835 287.602 31.7995C286.91 30.4165 285.829 29.2485 284.359 28.2975C282.889 27.3465 281.029 26.8705 278.782 26.8705C276.187 26.8705 273.982 27.7035 272.166 29.3675C270.35 31.0325 269.16 33.2265 268.599 35.9505H288.769ZM270.739 54.7595C268.231 53.2455 266.274 51.1585 264.87 48.5005C263.464 45.8415 262.762 42.8475 262.762 39.5175C262.762 36.3625 263.42 33.4325 264.74 30.7295C266.058 28.0285 267.939 25.8765 270.382 24.2765C272.825 22.6775 275.624 21.8765 278.782 21.8765C282.024 21.8765 284.834 22.6005 287.213 24.0495C289.59 25.4985 291.417 27.4975 292.693 30.0485C293.968 32.5995 294.606 35.5185 294.606 38.8045C294.606 39.3235 294.563 39.8855 294.477 40.4905H268.274C268.404 42.9985 269.009 45.1175 270.091 46.8465C271.17 48.5755 272.544 49.8735 274.209 50.7375C275.873 51.6025 277.614 52.0345 279.43 52.0345C283.753 52.0345 287.019 50.0465 289.223 46.0685L293.894 48.3375C292.509 50.9755 290.585 53.0835 288.121 54.6615C285.656 56.2395 282.694 57.0285 279.235 57.0285C276.079 57.0285 273.247 56.2715 270.739 54.7595Z" fill="white"/>
<path fill-rule="evenodd" clip-rule="evenodd" d="M295.448 22.9143H301.35L311.598 49.5053H311.728L322.104 22.9143H327.878L314.387 55.9913H308.809L295.448 22.9143Z" fill="white"/>
<path d="M112.896 54.016C112 54.784 110.891 55.3813 109.568 55.808C108.245 56.192 106.88 56.384 105.472 56.384C102.059 56.384 99.4133 55.4667 97.536 53.632C95.6587 51.7973 94.72 49.1733 94.72 45.76V27.136H88.96V22.08H94.72V14.656H100.864V22.08H110.592V27.136H100.864V45.504C100.864 47.3387 101.312 48.7467 102.208 49.728C103.147 50.7093 104.469 51.2 106.176 51.2C108.053 51.2 109.653 50.6667 110.976 49.6L112.896 54.016ZM149.855 39.232C149.855 39.7013 149.812 40.32 149.727 41.088H122.207C122.591 44.0747 123.892 46.4853 126.111 48.32C128.372 50.112 131.167 51.008 134.495 51.008C138.548 51.008 141.812 49.6427 144.287 46.912L147.679 50.88C146.143 52.672 144.223 54.0373 141.919 54.976C139.658 55.9147 137.119 56.384 134.303 56.384C130.719 56.384 127.54 55.6587 124.767 54.208C121.994 52.7147 119.839 50.6453 118.303 48C116.81 45.3547 116.063 42.368 116.063 39.04C116.063 35.7547 116.788 32.7893 118.239 30.144C119.732 27.4987 121.759 25.4507 124.319 24C126.922 22.5067 129.844 21.76 133.087 21.76C136.33 21.76 139.21 22.5067 141.727 24C144.287 25.4507 146.271 27.4987 147.679 30.144C149.13 32.7893 149.855 35.8187 149.855 39.232ZM133.087 26.944C130.143 26.944 127.668 27.84 125.663 29.632C123.7 31.424 122.548 33.7707 122.207 36.672H143.967C143.626 33.8133 142.452 31.488 140.447 29.696C138.484 27.8613 136.031 26.944 133.087 26.944ZM168.115 56.384C165.341 56.384 162.675 56.0213 160.115 55.296C157.555 54.528 155.549 53.568 154.099 52.416L156.659 47.552C158.152 48.6187 159.965 49.472 162.099 50.112C164.232 50.752 166.387 51.072 168.562 51.072C173.939 51.072 176.627 49.536 176.627 46.464C176.627 45.44 176.264 44.6293 175.539 44.032C174.813 43.4347 173.896 43.008 172.787 42.752C171.72 42.4533 170.184 42.1333 168.179 41.792C165.448 41.3653 163.208 40.8747 161.459 40.32C159.752 39.7653 158.28 38.8267 157.043 37.504C155.805 36.1813 155.187 34.3253 155.187 31.936C155.187 28.864 156.467 26.4107 159.027 24.576C161.587 22.6987 165.021 21.76 169.331 21.76C171.592 21.76 173.853 22.0373 176.115 22.592C178.376 23.1467 180.232 23.8933 181.683 24.832L179.059 29.696C176.285 27.904 173.021 27.008 169.267 27.008C166.664 27.008 164.68 27.4347 163.315 28.288C161.949 29.1413 161.267 30.272 161.267 31.68C161.267 32.7893 161.651 33.664 162.419 34.304C163.187 34.944 164.125 35.4133 165.235 35.712C166.387 36.0107 167.987 36.352 170.035 36.736C172.765 37.2053 174.963 37.7173 176.627 38.272C178.333 38.784 179.784 39.68 180.979 40.96C182.173 42.24 182.771 44.032 182.771 46.336C182.771 49.408 181.448 51.8613 178.803 53.696C176.2 55.488 172.637 56.384 168.115 56.384ZM209.521 54.016C208.625 54.784 207.516 55.3813 206.193 55.808C204.87 56.192 203.505 56.384 202.097 56.384C198.684 56.384 196.038 55.4667 194.161 53.632C192.284 51.7973 191.345 49.1733 191.345 45.76V27.136H185.585V22.08H191.345V14.656H197.489V22.08H207.217V27.136H197.489V45.504C197.489 47.3387 197.937 48.7467 198.833 49.728C199.772 50.7093 201.094 51.2 202.801 51.2C204.678 51.2 206.278 50.6667 207.601 49.6L209.521 54.016Z" fill="white"/>
</g>
<defs>
<clipPath id="clip0">
<rect width="328" height="70" fill="white"/>
</clipPath>
</defs>
</svg>
